{"asset": {"version": "2.0", "generator": "gryce-test-fixture"}, "scene": 0, "scenes": [{"nodes": [0, 2]}], "nodes": [{"name": "joint0", "children": [1]}, {"name": "joint1", "translation": [0, 1, 0]}, {"name": "meshNode", "mesh": 0, "skin": 0}], "meshes": [{"primitives": [{"attributes": {"POSITION": 0, "TEXCOORD_0": 1, "JOINTS_0": 2, "WEIGHTS_0": 3}, "indices": 4}]}], "skins": [{"joints": [0, 1], "inverseBindMatrices": 5}], "animations": [{"channels": [{"sampler": 0, "target": {"node": 1, "path": "translation"}}], "samplers": [{"input": 6, "interpolation": "LINEAR", "output": 7}]}], "buffers": [{"byteLength": 300, "uri": "data:application/octet-stream;base64,"}], "bufferViews": [{"buffer": 0, "byteOffset": 0, "byteLength": 36, "target": 34962}, {"buffer": 0, "byteOffset": 36, "byteLength": 24, "target": 34962}, {"buffer": 0, "byteOffset": 60, "byteLength": 24, "target": 34962}, {"buffer": 0, "byteOffset": 84, "byteLength": 48, "target": 34962}, {"buffer": 0, "byteOffset": 132, "byteLength": 6, "target": 34963}, {"buffer": 0, "byteOffset": 140, "byteLength": 128}, {"buffer": 0, "byteOffset": 268, "byteLength": 8}, {"buffer": 0, "byteOffset": 276, "byteLength": 24}], "accessors": [{"bufferView": 0, "byteOffset": 0, "componentType": 5126, "count": 3, "type": "VEC3", "min": [0, 0, 0], "max": [1, 1, 0]}, {"bufferView": 1, "byteOffset": 0, "componentType": 5126, "count": 3, "type": "VEC2"}, {"bufferView": 2, "byteOffset": 0, "componentType": 5123, "count": 3, "type": "VEC4"}, {"bufferView": 3, "byteOffset": 0, "componentType": 5126, "count": 3, "type": "VEC4"}, {"bufferView": 4, "byteOffset": 0, "componentType": 5123, "count": 3, "type": "SCALAR"}, {"bufferView": 5, "byteOffset": 0, "componentType": 5126, "count": 2, "type": "MAT4"}, {"bufferView": 6, "byteOffset": 0, "componentType": 5126, "count": 2, "type": "SCALAR", "min": [0.0], "max": [1.0]}, {"bufferView": 7, "byteOffset": 0, "componentType": 5126, "count": 2, "type": "VEC3"}]}